<svg xmlns="http://www.w3.org/2000/svg" viewBox="0 0 220 200" fill="none" aria-hidden="true">
<defs>
  <linearGradient id="lf" x1="0" y1="0" x2="1" y2="0">
    <stop offset="0" stop-color="#1C4634"/><stop offset="0.55" stop-color="#2C6B4F"/><stop offset="1" stop-color="#3E8A63"/>
  </linearGradient>
  <radialGradient id="bloom" cx="50%" cy="50%" r="55%">
    <stop offset="0" stop-color="#E7C766"/><stop offset="0.35" stop-color="#FFFDF6"/><stop offset="1" stop-color="#F3ECDC"/>
  </radialGradient>
</defs>
<g transform="translate(150,120)">
<path d="M0,0 C33.6,-24.0 86.4,-24.0 120.0,0 C86.4,24.0 33.6,24.0 0,0 Z" transform="rotate(150)" fill="url(#lf)" stroke="#1C4634" stroke-width="1"/>
<path d="M0,0 C26.9,-20.0 69.1,-20.0 96.0,0 C69.1,20.0 26.9,20.0 0,0 Z" transform="rotate(120)" fill="url(#lf)" stroke="#1C4634" stroke-width="1"/>
</g>
<g transform="translate(96,86)">
<g transform="rotate(0)"><path d="M0,0 C16,-22 16,-54 0,-72 C-16,-54 -16,-22 0,0 Z" fill="url(#bloom)" stroke="#E8DFC8" stroke-width="1"/></g><g transform="rotate(72)"><path d="M0,0 C16,-22 16,-54 0,-72 C-16,-54 -16,-22 0,0 Z" fill="url(#bloom)" stroke="#E8DFC8" stroke-width="1"/></g><g transform="rotate(144)"><path d="M0,0 C16,-22 16,-54 0,-72 C-16,-54 -16,-22 0,0 Z" fill="url(#bloom)" stroke="#E8DFC8" stroke-width="1"/></g><g transform="rotate(216)"><path d="M0,0 C16,-22 16,-54 0,-72 C-16,-54 -16,-22 0,0 Z" fill="url(#bloom)" stroke="#E8DFC8" stroke-width="1"/></g><g transform="rotate(288)"><path d="M0,0 C16,-22 16,-54 0,-72 C-16,-54 -16,-22 0,0 Z" fill="url(#bloom)" stroke="#E8DFC8" stroke-width="1"/></g>
<circle r="13" fill="#E7C766"/>
</g>
</svg>