<svg xmlns="http://www.w3.org/2000/svg" viewBox="-110 -110 220 220" fill="none" aria-hidden="true">
<circle r="100" stroke="#B0843A" stroke-width="1.4" opacity="0.55"/>
<circle r="62" stroke="#B0843A" stroke-width="1" opacity="0.4"/>
<line x1="70.0" y1="0.0" x2="96.0" y2="0.0" stroke="#B0843A" stroke-width="2"/><line x1="79.5" y1="32.9" x2="88.7" y2="36.7" stroke="#B0843A" stroke-width="1"/><line x1="60.8" y1="60.8" x2="67.9" y2="67.9" stroke="#B0843A" stroke-width="1"/><line x1="32.9" y1="79.5" x2="36.7" y2="88.7" stroke="#B0843A" stroke-width="1"/><line x1="0.0" y1="70.0" x2="0.0" y2="96.0" stroke="#B0843A" stroke-width="2"/><line x1="-32.9" y1="79.5" x2="-36.7" y2="88.7" stroke="#B0843A" stroke-width="1"/><line x1="-60.8" y1="60.8" x2="-67.9" y2="67.9" stroke="#B0843A" stroke-width="1"/><line x1="-79.5" y1="32.9" x2="-88.7" y2="36.7" stroke="#B0843A" stroke-width="1"/><line x1="-70.0" y1="0.0" x2="-96.0" y2="0.0" stroke="#B0843A" stroke-width="2"/><line x1="-79.5" y1="-32.9" x2="-88.7" y2="-36.7" stroke="#B0843A" stroke-width="1"/><line x1="-60.8" y1="-60.8" x2="-67.9" y2="-67.9" stroke="#B0843A" stroke-width="1"/><line x1="-32.9" y1="-79.5" x2="-36.7" y2="-88.7" stroke="#B0843A" stroke-width="1"/><line x1="-0.0" y1="-70.0" x2="-0.0" y2="-96.0" stroke="#B0843A" stroke-width="2"/><line x1="32.9" y1="-79.5" x2="36.7" y2="-88.7" stroke="#B0843A" stroke-width="1"/><line x1="60.8" y1="-60.8" x2="67.9" y2="-67.9" stroke="#B0843A" stroke-width="1"/><line x1="79.5" y1="-32.9" x2="88.7" y2="-36.7" stroke="#B0843A" stroke-width="1"/>
<g transform="rotate(0)"><path d="M0,-66 L10,-12 L0,0 L-10,-12 Z" fill="#B0843A" opacity="0.9"/></g><g transform="rotate(90)"><path d="M0,-66 L10,-12 L0,0 L-10,-12 Z" fill="#B0843A" opacity="0.9"/></g><g transform="rotate(180)"><path d="M0,-66 L10,-12 L0,0 L-10,-12 Z" fill="#B0843A" opacity="0.9"/></g><g transform="rotate(270)"><path d="M0,-66 L10,-12 L0,0 L-10,-12 Z" fill="#B0843A" opacity="0.9"/></g>
<circle r="12" fill="none" stroke="#C9A24B" stroke-width="1.4"/>
<circle r="3" fill="#C9A24B"/>
</svg>