<svg xmlns="http://www.w3.org/2000/svg" viewBox="0 0 340 300" fill="none" aria-hidden="true">
<defs>
  <linearGradient id="lf" x1="0" y1="0" x2="1" y2="0">
    <stop offset="0" stop-color="#1C4634"/><stop offset="0.55" stop-color="#2C6B4F"/><stop offset="1" stop-color="#3E8A63"/>
  </linearGradient>
  <radialGradient id="bloom" cx="50%" cy="50%" r="55%">
    <stop offset="0" stop-color="#E7C766"/><stop offset="0.35" stop-color="#FFFDF6"/><stop offset="1" stop-color="#F3ECDC"/>
  </radialGradient>
</defs>
<g transform="translate(8,288)">
<g transform="rotate(-8)">
<path d="M0,0 C42.0,-26.0 108.0,-26.0 150.0,0 C108.0,26.0 42.0,26.0 0,0 Z" fill="url(#lf)" stroke="#1C4634" stroke-width="1" opacity="0.97"/>
<path d="M2,0 L135.0,0" stroke="#C9A24B" stroke-width="1.1" opacity="0.7" fill="none"/>
</g>
<g transform="rotate(-26)">
<path d="M0,0 C47.6,-30.0 122.4,-30.0 170.0,0 C122.4,30.0 47.6,30.0 0,0 Z" fill="url(#lf)" stroke="#1C4634" stroke-width="1" opacity="0.97"/>
<path d="M2,0 L153.0,0" stroke="#C9A24B" stroke-width="1.1" opacity="0.7" fill="none"/>
</g>
<g transform="rotate(-44)">
<path d="M0,0 C39.2,-24.0 100.8,-24.0 140.0,0 C100.8,24.0 39.2,24.0 0,0 Z" fill="url(#lf)" stroke="#1C4634" stroke-width="1" opacity="0.97"/>
<path d="M2,0 L126.0,0" stroke="#C9A24B" stroke-width="1.1" opacity="0.7" fill="none"/>
</g>
<g transform="rotate(-62)">
<path d="M0,0 C51.8,-32.0 133.2,-32.0 185.0,0 C133.2,32.0 51.8,32.0 0,0 Z" fill="url(#lf)" stroke="#1C4634" stroke-width="1" opacity="0.97"/>
<path d="M2,0 L166.5,0" stroke="#C9A24B" stroke-width="1.1" opacity="0.7" fill="none"/>
</g>
<g transform="rotate(-78)">
<path d="M0,0 C33.6,-22.0 86.4,-22.0 120.0,0 C86.4,22.0 33.6,22.0 0,0 Z" fill="url(#lf)" stroke="#1C4634" stroke-width="1" opacity="0.97"/>
<path d="M2,0 L108.0,0" stroke="#C9A24B" stroke-width="1.1" opacity="0.7" fill="none"/>
</g>
<g transform="rotate(-15)">
<path d="M0,0 C44.8,-28.0 115.2,-28.0 160.0,0 C115.2,28.0 44.8,28.0 0,0 Z" fill="url(#lf)" stroke="#1C4634" stroke-width="1" opacity="0.97"/>
<path d="M2,0 L144.0,0" stroke="#C9A24B" stroke-width="1.1" opacity="0.7" fill="none"/>
</g>
<g transform="rotate(-90)">
<path d="M0,0 C28.0,-20.0 72.0,-20.0 100.0,0 C72.0,20.0 28.0,20.0 0,0 Z" fill="url(#lf)" stroke="#1C4634" stroke-width="1" opacity="0.97"/>
<path d="M2,0 L90.0,0" stroke="#C9A24B" stroke-width="1.1" opacity="0.7" fill="none"/>
</g>
<g transform="rotate(-35)">
<path d="M0,0 C37.8,-24.0 97.2,-24.0 135.0,0 C97.2,24.0 37.8,24.0 0,0 Z" fill="url(#lf)" stroke="#1C4634" stroke-width="1" opacity="0.97"/>
<path d="M2,0 L121.5,0" stroke="#C9A24B" stroke-width="1.1" opacity="0.7" fill="none"/>
</g>
</g>
</svg>