<svg xmlns="http://www.w3.org/2000/svg" viewBox="0 0 260 180" fill="none" aria-hidden="true">
<defs>
  <linearGradient id="lf" x1="0" y1="0" x2="1" y2="0">
    <stop offset="0" stop-color="#1C4634"/><stop offset="0.55" stop-color="#2C6B4F"/><stop offset="1" stop-color="#3E8A63"/>
  </linearGradient>
  <radialGradient id="bloom" cx="50%" cy="50%" r="55%">
    <stop offset="0" stop-color="#E7C766"/><stop offset="0.35" stop-color="#FFFDF6"/><stop offset="1" stop-color="#F3ECDC"/>
  </radialGradient>
</defs>
<g transform="translate(6,90)">
<path d="M0,0 C90,-6 170,-2 250,2" stroke="#1C4634" stroke-width="3" fill="none"/>
<g transform="rotate(-34)">
<path d="M0,0 C26.9,-12.0 69.3,-12.0 96.2,0 C69.3,12.0 26.9,12.0 0,0 Z" fill="url(#lf)" stroke="#1C4634" stroke-width="1" opacity="0.97"/>
<path d="M2,0 L86.6,0" stroke="#C9A24B" stroke-width="1.1" opacity="0.7" fill="none"/>
</g>
<g transform="rotate(-24)">
<path d="M0,0 C28.9,-12.6 74.3,-12.6 103.2,0 C74.3,12.6 28.9,12.6 0,0 Z" fill="url(#lf)" stroke="#1C4634" stroke-width="1" opacity="0.97"/>
<path d="M2,0 L92.9,0" stroke="#C9A24B" stroke-width="1.1" opacity="0.7" fill="none"/>
</g>
<g transform="rotate(-14)">
<path d="M0,0 C30.9,-13.2 79.3,-13.2 110.2,0 C79.3,13.2 30.9,13.2 0,0 Z" fill="url(#lf)" stroke="#1C4634" stroke-width="1" opacity="0.97"/>
<path d="M2,0 L99.2,0" stroke="#C9A24B" stroke-width="1.1" opacity="0.7" fill="none"/>
</g>
<g transform="rotate(-4)">
<path d="M0,0 C32.8,-13.8 84.4,-13.8 117.2,0 C84.4,13.8 32.8,13.8 0,0 Z" fill="url(#lf)" stroke="#1C4634" stroke-width="1" opacity="0.97"/>
<path d="M2,0 L105.5,0" stroke="#C9A24B" stroke-width="1.1" opacity="0.7" fill="none"/>
</g>
<g transform="rotate(6)">
<path d="M0,0 C32.4,-13.6 83.4,-13.6 115.8,0 C83.4,13.6 32.4,13.6 0,0 Z" fill="url(#lf)" stroke="#1C4634" stroke-width="1" opacity="0.97"/>
<path d="M2,0 L104.2,0" stroke="#C9A24B" stroke-width="1.1" opacity="0.7" fill="none"/>
</g>
<g transform="rotate(16)">
<path d="M0,0 C30.5,-13.0 78.3,-13.0 108.8,0 C78.3,13.0 30.5,13.0 0,0 Z" fill="url(#lf)" stroke="#1C4634" stroke-width="1" opacity="0.97"/>
<path d="M2,0 L97.9,0" stroke="#C9A24B" stroke-width="1.1" opacity="0.7" fill="none"/>
</g>
<g transform="rotate(26)">
<path d="M0,0 C28.5,-12.4 73.3,-12.4 101.8,0 C73.3,12.4 28.5,12.4 0,0 Z" fill="url(#lf)" stroke="#1C4634" stroke-width="1" opacity="0.97"/>
<path d="M2,0 L91.6,0" stroke="#C9A24B" stroke-width="1.1" opacity="0.7" fill="none"/>
</g>
</g>
</svg>