<svg xmlns="http://www.w3.org/2000/svg" viewBox="0 0 1600 900" preserveAspectRatio="xMidYMid slice">
<defs>
<linearGradient id="sky" x1="0" y1="0" x2="0" y2="1">
<stop offset="0" stop-color="#2B3A4A"/><stop offset="0.5" stop-color="#3E4A3C"/><stop offset="1" stop-color="#1C2118"/></linearGradient>
<linearGradient id="hz" x1="0" y1="0" x2="0" y2="1">
<stop offset="0" stop-color="#E0560F" stop-opacity="0.55"/><stop offset="1" stop-color="#E0560F" stop-opacity="0"/></linearGradient>
</defs>
<rect width="1600" height="900" fill="url(#sky)"/>
<ellipse cx="1120" cy="430" rx="520" ry="240" fill="url(#hz)"/>
<circle cx="1120" cy="360" r="70" fill="#F2B23C" opacity="0.85"/>
<path d="M0 640 L260 470 L420 600 L640 430 L900 660 L1150 500 L1600 700 V900 H0 Z" fill="#243024" opacity="0.92"/>
<path d="M0 740 L320 600 L560 720 L820 560 L1120 760 L1600 600 V900 H0 Z" fill="#1A2117"/>
<g fill="#11160E">
<rect x="180" y="690" width="14" height="150"/><path d="M187 690 q-50 -30 -86 -16 q40 -36 92 -8 q-6 -44 30 -70 q12 44 -10 86 q40 -22 78 6 q-58 -8 -90 30 z"/>
<rect x="1320" y="700" width="14" height="150"/><path d="M1327 700 q-50 -30 -86 -16 q40 -36 92 -8 q-6 -44 30 -70 q12 44 -10 86 q40 -22 78 6 q-58 -8 -90 30 z"/>
</g>
<rect width="1600" height="900" fill="#0C100A" opacity="0.32"/>
</svg>