<svg xmlns="http://www.w3.org/2000/svg" viewBox="-90 -90 180 180" aria-hidden="true">
<polygon points="45.4,-7.2 82.0,0.0 45.4,7.2" fill="#E0A93B"/><polygon points="44.7,10.7 75.8,31.4 39.2,24.0" fill="#E0A93B"/><polygon points="37.2,27.0 58.0,58.0 27.0,37.2" fill="#E0A93B"/><polygon points="24.0,39.2 31.4,75.8 10.7,44.7" fill="#E0A93B"/><polygon points="7.2,45.4 0.0,82.0 -7.2,45.4" fill="#E0A93B"/><polygon points="-10.7,44.7 -31.4,75.8 -24.0,39.2" fill="#E0A93B"/><polygon points="-27.0,37.2 -58.0,58.0 -37.2,27.0" fill="#E0A93B"/><polygon points="-39.2,24.0 -75.8,31.4 -44.7,10.7" fill="#E0A93B"/><polygon points="-45.4,7.2 -82.0,0.0 -45.4,-7.2" fill="#E0A93B"/><polygon points="-44.7,-10.7 -75.8,-31.4 -39.2,-24.0" fill="#E0A93B"/><polygon points="-37.2,-27.0 -58.0,-58.0 -27.0,-37.2" fill="#E0A93B"/><polygon points="-24.0,-39.2 -31.4,-75.8 -10.7,-44.7" fill="#E0A93B"/><polygon points="-7.2,-45.4 -0.0,-82.0 7.2,-45.4" fill="#E0A93B"/><polygon points="10.7,-44.7 31.4,-75.8 24.0,-39.2" fill="#E0A93B"/><polygon points="27.0,-37.2 58.0,-58.0 37.2,-27.0" fill="#E0A93B"/><polygon points="39.2,-24.0 75.8,-31.4 44.7,-10.7" fill="#E0A93B"/>
<circle r="48" fill="#D6952A"/>
<circle r="48" fill="none" stroke="#FFFDF7" stroke-width="3" opacity="0.55"/>
</svg>