<svg xmlns="http://www.w3.org/2000/svg" viewBox="0 0 1200 260" preserveAspectRatio="xMidYMax meet" aria-hidden="true"><polygon points="6,108 194,108 176,74 24,74" fill="#E64A3C"/><rect x="98.0" y="60" width="4" height="16" fill="#2A2622"/><circle cx="100.0" cy="58" r="4" fill="#2A2622"/><rect x="14" y="108" width="172" height="150" fill="#11A39C"/><path d="M14 112 L14.0 112 C14.0 122 42.66666666666667 122 42.66666666666667 112 L42.66666666666667 112 C42.66666666666667 122 71.33333333333334 122 71.33333333333334 112 L71.33333333333334 112 C71.33333333333334 122 100.00000000000001 122 100.00000000000001 112 L100.0 112 C100.0 122 128.66666666666666 122 128.66666666666666 112 L128.66666666666669 112 C128.66666666666669 122 157.33333333333334 122 157.33333333333334 112 L157.33333333333334 112 C157.33333333333334 122 186.0 122 186.0 112 L186 112 L186 108 L14 108 Z" fill="#FFFDF7"/><rect x="57.88" y="141.0" width="84.24" height="63.00000000000001" rx="3" fill="#FFFDF7"/><rect x="63.88" y="147.0" width="72.24" height="51.00000000000001" fill="#E64A3C" opacity="0.85"/><line x1="100.0" y1="147.0" x2="100.0" y2="198.0" stroke="#FFFDF7" stroke-width="3"/><line x1="63.88" y1="172.5" x2="136.12" y2="172.5" stroke="#FFFDF7" stroke-width="3"/><rect x="81.08" y="207.0" width="37.84" height="51.0" rx="3" fill="#FFFDF7"/><rect x="85.08" y="211.0" width="29.840000000000003" height="45.0" fill="#2A2622" opacity="0.18"/><polygon points="206,86 394,86 376,52 224,52" fill="#11A39C"/><rect x="298.0" y="38" width="4" height="16" fill="#2A2622"/><circle cx="300.0" cy="36" r="4" fill="#2A2622"/><rect x="214" y="86" width="172" height="172" fill="#F4B43C"/><path d="M214 90 L214.0 90 C214.0 100 242.66666666666666 100 242.66666666666666 90 L242.66666666666666 90 C242.66666666666666 100 271.3333333333333 100 271.3333333333333 90 L271.3333333333333 90 C271.3333333333333 100 300.0 100 300.0 90 L300.0 90 C300.0 100 328.6666666666667 100 328.6666666666667 90 L328.6666666666667 90 C328.6666666666667 100 357.33333333333337 100 357.33333333333337 90 L357.33333333333337 90 C357.33333333333337 100 386.00000000000006 100 386.00000000000006 90 L386 90 L386 86 L214 86 Z" fill="#FFFDF7"/><rect x="257.88" y="124.72" width="84.24" height="70.48" rx="3" fill="#FFFDF7"/><rect x="263.88" y="130.72" width="72.24" height="58.480000000000004" fill="#11A39C" opacity="0.85"/><line x1="300.0" y1="130.72" x2="300.0" y2="189.2" stroke="#FFFDF7" stroke-width="3"/><line x1="263.88" y1="159.96" x2="336.12" y2="159.96" stroke="#FFFDF7" stroke-width="3"/><rect x="281.08" y="199.51999999999998" width="37.84" height="58.48000000000002" rx="3" fill="#FFFDF7"/><rect x="285.08" y="203.51999999999998" width="29.840000000000003" height="52.48000000000002" fill="#2A2622" opacity="0.18"/><polygon points="406,64 594,64 576,30 424,30" fill="#F4B43C"/><rect x="498.0" y="16" width="4" height="16" fill="#2A2622"/><circle cx="500.0" cy="14" r="4" fill="#2A2622"/><rect x="414" y="64" width="172" height="194" fill="#E64A3C"/><path d="M414 68 L414.0 68 C414.0 78 442.6666666666667 78 442.6666666666667 68 L442.6666666666667 68 C442.6666666666667 78 471.33333333333337 78 471.33333333333337 68 L471.3333333333333 68 C471.3333333333333 78 500.0 78 500.0 68 L500.0 68 C500.0 78 528.6666666666666 78 528.6666666666666 68 L528.6666666666666 68 C528.6666666666666 78 557.3333333333333 78 557.3333333333333 68 L557.3333333333334 68 C557.3333333333334 78 586.0 78 586.0 68 L586 68 L586 64 L414 64 Z" fill="#FFFDF7"/><rect x="457.88" y="108.44" width="84.24" height="77.96000000000001" rx="3" fill="#FFFDF7"/><rect x="463.88" y="114.44" width="72.24" height="65.96000000000001" fill="#F4B43C" opacity="0.85"/><line x1="500.0" y1="114.44" x2="500.0" y2="180.4" stroke="#FFFDF7" stroke-width="3"/><line x1="463.88" y1="147.42000000000002" x2="536.12" y2="147.42000000000002" stroke="#FFFDF7" stroke-width="3"/><rect x="481.08" y="192.04" width="37.84" height="65.96000000000001" rx="3" fill="#FFFDF7"/><rect x="485.08" y="196.04" width="29.840000000000003" height="59.96000000000001" fill="#2A2622" opacity="0.18"/><polygon points="606,108 794,108 776,74 624,74" fill="#8A66B0"/><rect x="698.0" y="60" width="4" height="16" fill="#2A2622"/><circle cx="700.0" cy="58" r="4" fill="#2A2622"/><rect x="614" y="108" width="172" height="150" fill="#66B23C"/><path d="M614 112 L614.0 112 C614.0 122 642.6666666666666 122 642.6666666666666 112 L642.6666666666666 112 C642.6666666666666 122 671.3333333333333 122 671.3333333333333 112 L671.3333333333334 112 C671.3333333333334 122 700.0 122 700.0 112 L700.0 112 C700.0 122 728.6666666666666 122 728.6666666666666 112 L728.6666666666666 112 C728.6666666666666 122 757.3333333333333 122 757.3333333333333 112 L757.3333333333334 112 C757.3333333333334 122 786.0 122 786.0 112 L786 112 L786 108 L614 108 Z" fill="#FFFDF7"/><rect x="657.88" y="141.0" width="84.24" height="63.00000000000001" rx="3" fill="#FFFDF7"/><rect x="663.88" y="147.0" width="72.24" height="51.00000000000001" fill="#8A66B0" opacity="0.85"/><line x1="700.0" y1="147.0" x2="700.0" y2="198.0" stroke="#FFFDF7" stroke-width="3"/><line x1="663.88" y1="172.5" x2="736.12" y2="172.5" stroke="#FFFDF7" stroke-width="3"/><rect x="681.08" y="207.0" width="37.84" height="51.0" rx="3" fill="#FFFDF7"/><rect x="685.08" y="211.0" width="29.840000000000003" height="45.0" fill="#2A2622" opacity="0.18"/><polygon points="806,86 994,86 976,52 824,52" fill="#E64A3C"/><rect x="898.0" y="38" width="4" height="16" fill="#2A2622"/><circle cx="900.0" cy="36" r="4" fill="#2A2622"/><rect x="814" y="86" width="172" height="172" fill="#2E8FC4"/><path d="M814 90 L814.0 90 C814.0 100 842.6666666666666 100 842.6666666666666 90 L842.6666666666666 90 C842.6666666666666 100 871.3333333333333 100 871.3333333333333 90 L871.3333333333334 90 C871.3333333333334 100 900.0 100 900.0 90 L900.0 90 C900.0 100 928.6666666666666 100 928.6666666666666 90 L928.6666666666666 90 C928.6666666666666 100 957.3333333333333 100 957.3333333333333 90 L957.3333333333334 90 C957.3333333333334 100 986.0 100 986.0 90 L986 90 L986 86 L814 86 Z" fill="#FFFDF7"/><rect x="857.88" y="124.72" width="84.24" height="70.48" rx="3" fill="#FFFDF7"/><rect x="863.88" y="130.72" width="72.24" height="58.480000000000004" fill="#E64A3C" opacity="0.85"/><line x1="900.0" y1="130.72" x2="900.0" y2="189.2" stroke="#FFFDF7" stroke-width="3"/><line x1="863.88" y1="159.96" x2="936.12" y2="159.96" stroke="#FFFDF7" stroke-width="3"/><rect x="881.08" y="199.51999999999998" width="37.84" height="58.48000000000002" rx="3" fill="#FFFDF7"/><rect x="885.08" y="203.51999999999998" width="29.840000000000003" height="52.48000000000002" fill="#2A2622" opacity="0.18"/><polygon points="1006,64 1194,64 1176,30 1024,30" fill="#66B23C"/><rect x="1098.0" y="16" width="4" height="16" fill="#2A2622"/><circle cx="1100.0" cy="14" r="4" fill="#2A2622"/><rect x="1014" y="64" width="172" height="194" fill="#8A66B0"/><path d="M1014 68 L1014.0 68 C1014.0 78 1042.6666666666667 78 1042.6666666666667 68 L1042.6666666666667 68 C1042.6666666666667 78 1071.3333333333335 78 1071.3333333333335 68 L1071.3333333333333 68 C1071.3333333333333 78 1100.0 78 1100.0 68 L1100.0 68 C1100.0 78 1128.6666666666667 78 1128.6666666666667 68 L1128.6666666666667 68 C1128.6666666666667 78 1157.3333333333335 78 1157.3333333333335 68 L1157.3333333333333 68 C1157.3333333333333 78 1186.0 78 1186.0 68 L1186 68 L1186 64 L1014 64 Z" fill="#FFFDF7"/><rect x="1057.88" y="108.44" width="84.24" height="77.96000000000001" rx="3" fill="#FFFDF7"/><rect x="1063.88" y="114.44" width="72.24" height="65.96000000000001" fill="#66B23C" opacity="0.85"/><line x1="1100.0" y1="114.44" x2="1100.0" y2="180.4" stroke="#FFFDF7" stroke-width="3"/><line x1="1063.88" y1="147.42000000000002" x2="1136.1200000000001" y2="147.42000000000002" stroke="#FFFDF7" stroke-width="3"/><rect x="1081.08" y="192.04" width="37.84" height="65.96000000000001" rx="3" fill="#FFFDF7"/><rect x="1085.08" y="196.04" width="29.840000000000003" height="59.96000000000001" fill="#2A2622" opacity="0.18"/></svg>